<?xml version="1.0" encoding="UTF-8" standalone="no"?>
<svg
   width="1907"
   height="2002"
   version="1.1"
   id="svg13"
   sodipodi:docname="svnl.svg"
   inkscape:version="1.4.3 (0d15f75, 2025-12-25)"
   xmlns:inkscape="http://www.inkscape.org/namespaces/inkscape"
   xmlns:sodipodi="http://sodipodi.sourceforge.net/DTD/sodipodi-0.dtd"
   xmlns="http://www.w3.org/2000/svg"
   xmlns:svg="http://www.w3.org/2000/svg">
  <defs
     id="defs13" />
  <sodipodi:namedview
     id="namedview13"
     pagecolor="#ffffff"
     bordercolor="#000000"
     borderopacity="0.25"
     inkscape:showpageshadow="2"
     inkscape:pageopacity="0.0"
     inkscape:pagecheckerboard="0"
     inkscape:deskcolor="#d1d1d1"
     inkscape:zoom="0.46145779"
     inkscape:cx="952.41648"
     inkscape:cy="1000.0915"
     inkscape:window-width="2481"
     inkscape:window-height="1264"
     inkscape:window-x="131"
     inkscape:window-y="41"
     inkscape:window-maximized="0"
     inkscape:current-layer="svg13" />
  <path
     d="m 1700,522 c -86.37,-50.938 -162.16,-119.595 -225.58,-197 -20.35,-24.842 -38.52,-51.478 -55.02,-79 -5.11,-8.518 -9.73,-17.317 -14.54,-26 -1.72,-3.112 -3.12,-7.977 -6.25,-9.972 -4,-2.554 -12.03,-1.028 -16.61,-1.028 H 532 c -5.29,0 -12.939,-1.389 -17.907,0.603 -7.428,2.98 -13.419,17.851 -17.517,24.397 -13.377,21.363 -27.443,42.424 -42,63 -45.001,63.606 -95.763,119.153 -156.576,167.999 -19.757,15.87 -40.044,31.396 -61,45.657 -4.656,3.168 -20.066,10.231 -20.292,16.387 -0.282,7.716 8.771,19.818 11.868,26.957 9.465,21.821 18.33,44.278 25.399,67 C 277.76,697.46 299,773.489 299,854 c 0,66.799 -16.499,131.863 -33.849,196 -11.977,44.28 -23.325,88.72 -35.302,133 -17.327,64.05 -35.534,133.66 -18.954,200 5.363,21.46 14.998,41.97 26.117,61 116.003,198.58 367.287,225.07 566.988,283.42 36.654,10.71 74.107,23.25 107,42.98 11.303,6.78 21.994,13.98 32,22.6 3.46,2.98 9.269,10.55 14,10.88 6.043,0.43 16.293,-10.75 21,-14.25 17.407,-12.93 35.82,-24.73 55,-34.85 58.32,-30.77 122.93,-48.2 187,-62.36 39.79,-8.78 80.81,-13.67 120,-24.85 78.48,-22.37 155.12,-62.23 222,-108.55 44.64,-30.91 87.31,-68.39 114.57,-116.02 37.19,-64.97 33.48,-138.28 17.85,-209 -19.64,-88.92 -53.54,-174.05 -69.17,-264 -19.45,-111.939 -9.78,-225.012 25.42,-333 8.08,-24.79 17.76,-49.307 28.64,-73 6.44,-14.024 15.43,-27.55 20.69,-42"
     style="display:inline;fill:#3478be;stroke:none;fill-opacity:1"
     id="path3"
     inkscape:label="shield" />
  <path
     id="path17"
     style="display:inline;fill:#fdfeff;stroke:none"
     inkscape:label="decoration"
     d="m 1345,566 c -16.01,3.805 -23.02,26.875 -23,41 0.06,36.69 20.23,73.945 36.25,106 4.89,9.79 9.14,28.615 18.08,35.257 8,5.945 17.06,-7.682 20.62,-13.257 10.29,-16.132 9.31,-39.839 1.27,-57 -7.05,-15.043 -14.24,-30.047 -21.48,-45 C 1366,610.806 1354.48,588.768 1345,566 m -802,4 c -11.422,21.425 -20.381,44.268 -31.247,66 -7.436,14.872 -14.477,29.948 -21.533,45 -8.419,17.959 -10.121,42.124 1.135,59 3.697,5.544 11.243,17.454 19.46,12.82 9.702,-5.471 13.388,-26.437 18.609,-35.82 17.336,-31.15 32.107,-66.543 36.29,-102 1.861,-15.767 -6.133,-39.363 -22.714,-45 m 696,41 c 0.01,14.268 9.15,28.066 14.72,41 13.57,31.552 25.7,65.349 48.03,92 9.02,10.764 35.79,30.477 49.82,15.606 3.61,-3.836 2.54,-10.074 1.07,-14.606 -3.96,-12.226 -10.01,-24.18 -15.07,-36 -7.3,-17.057 -16.44,-33.693 -25.26,-50 -10.78,-19.925 -21.06,-39.123 -44.31,-46.895 -8.67,-2.897 -19.94,-1.105 -29,-1.105 m -590,5 c -9.449,0 -22.02,-2.166 -31,0.966 -36.376,12.687 -50.639,61.738 -66.247,93.034 a 368,368 0 0 0 -16.317,38 c -1.888,5.2 -3.394,11.257 0.867,15.772 14.042,14.877 40.774,-4.963 49.776,-15.772 22.267,-26.735 34.51,-60.404 48.071,-92 5.32,-12.393 14.811,-26.38 14.85,-40 m 669,159 c -6.86,11.817 -4.17,28.64 -5.09,42 -2.34,34.17 -7.49,71.249 0.99,105 3.46,13.814 17.78,43.461 37.08,36.103 5.67,-2.159 6.67,-7.808 7.44,-13.103 1.93,-13.307 2.58,-27.557 2.58,-41 0,-35.14 11.03,-87.268 -17.09,-114.895 C 1337.36,782.671 1326.4,778.499 1318,775 m -749,4 c -8.719,5.089 -19.843,8.303 -26.674,16.043 C 524.696,815.02 526,840.304 526,865 c 0,15.649 -0.651,31.432 0.83,47 1.201,12.613 0.8,25.426 2.459,38 0.76,5.758 3.27,11.75 9.711,12.757 18.249,2.852 30.71,-20.541 34.37,-34.757 8.92,-34.646 2.559,-69.986 1.645,-105 -0.319,-12.219 2.067,-34.198 -6.015,-44 m 864,3 c -20.34,0.171 -34.95,15.557 -42.14,33 -12.27,29.776 -8.91,60.824 -12.03,92 -1.28,12.776 -1.67,26.168 -1.83,39 -0.05,4.373 -1.06,11.006 1.86,14.682 4.86,6.117 17.12,-0.258 22.14,-3.11 16.17,-9.196 27.51,-28.61 27.99,-47.572 0.44,-17.939 -0.75,-37.221 1.59,-55 3.08,-23.46 1.93,-49.316 2.42,-73 m -978,4 c 0,24.335 2,48.621 2,73 0,16.265 0.615,32.697 1.015,49 0.497,20.289 9.518,43.47 27.985,53.219 5.32,2.809 18.091,10.71 22.86,3.553 6.845,-10.273 -0.455,-30.141 0.23,-41.772 0.534,-9.083 -1.089,-17.906 -1.09,-27 -0.002,-36.284 -2.154,-108.945 -53,-110 m 880,187 c -11.12,9.802 -17.4,25.336 -25,38 -17.07,28.45 -37.23,58.16 -44.57,91 -3,13.38 -3.51,28.24 4.62,40 3.5,5.05 8.28,9.89 14.95,8.77 5.75,-0.97 8.81,-6.26 11.68,-10.77 6.84,-10.76 13.49,-21.83 19.63,-33 20.49,-37.31 62.92,-97.47 18.69,-134 m -783.7,6.172 c -3.244,1.353 -5.48,6.125 -7.451,8.828 -7.698,10.557 -9.849,18.04 -9.849,31 0,21.23 8.478,35.45 17.753,54 8.052,16.1 15.738,32.73 25.297,48 5.898,9.42 17.11,39.68 31.949,33.33 14.561,-6.22 16.653,-27.92 14.562,-41.33 -5.486,-35.2 -27.41,-67.08 -45.361,-97 -5.952,-9.92 -11.694,-19.943 -17.435,-29.985 -1.689,-2.957 -5.241,-8.605 -9.465,-6.843 M 1435,1031 c -17.24,-8.65 -39.87,-1.08 -53,11.09 -23.68,21.95 -34.81,49.43 -52,75.91 -6.98,10.76 -13.23,22.65 -19.22,34 -2.06,3.91 -5.8,9.34 -5.02,13.98 1.45,8.72 14.96,7.02 21.24,7.02 21.71,-0.01 39.06,-15.9 49.42,-34 8.26,-14.43 16.25,-29.2 23.82,-44 10.98,-21.43 25.24,-41.92 34.76,-64 m -982,4 c 7.863,21.61 22.694,42.86 33.861,63 8.27,14.92 16.206,30.02 24.37,45 10.154,18.63 28.043,34 49.769,34 5.983,0 18.765,1.91 20.667,-6.04 1.334,-5.58 -2.799,-11.41 -5.386,-15.96 -6.383,-11.23 -12.099,-23.3 -19.256,-34 -4.492,-6.72 -7.978,-13.95 -11.886,-21 -17.294,-31.2 -48.517,-83.77 -92.139,-65 m 790,98 c -13.83,1.76 -25.35,12.59 -37,19.81 -29.12,18.05 -61.45,35.9 -84,62.19 -9.65,11.25 -24.45,38.56 -8.87,51.57 4.93,4.11 10.91,1.79 15.87,-0.88 11.9,-6.39 23.96,-14.05 35,-21.83 29.3,-20.65 74.58,-42.4 82.33,-80.86 1.89,-9.4 -2.58,-20.5 -3.33,-30 m -598,4 c -1.2,9.45 -5.264,20.51 -3.532,30 6.989,38.28 52.667,60.2 81.532,80.58 11.098,7.83 23.177,15.29 35,21.99 4.712,2.67 10.859,5.14 15.895,1.69 17.131,-11.76 1.106,-41.39 -8.195,-52.26 -22.393,-26.16 -54.781,-43.89 -83.7,-61.81 -11.865,-7.35 -23.143,-17.58 -37,-20.19 m 354,105 c 12.81,18.18 32.47,28.44 20.19,53 -1.88,3.76 -4.06,7.69 -6.72,10.96 -4.73,5.81 -13.538,7.04 -17.47,13.04 17.66,4.09 34.24,12.56 52,16.33 11.24,2.38 22.69,0.76 34,1.84 18.42,1.75 35.6,2.4 52,-7.17 -10.54,-10.75 -24.87,-19.33 -37,-28.27 -7.66,-5.64 -15.91,-11.69 -17.67,-21.73 -2.56,-14.57 3.27,-34.91 9.45,-48 2.02,-4.28 9.8,-15.66 6.18,-20.39 -3.34,-4.36 -19.43,1.7 -23.96,2.59 -27.24,5.34 -47.15,13.73 -71,27.8 m 306,-12 c -27.28,-38.4 -84.53,-4 -112,15.42 -6.84,4.84 -13.74,9.55 -21,13.73 -10.67,6.14 -20.62,13.85 -31,20.54 -4.4,2.84 -10.57,6.16 -12.58,11.31 -3.29,8.48 10.82,14.32 16.58,16.85 18.72,8.19 41.29,2.71 58,-8.19 13.57,-8.86 26.67,-18.44 40,-27.63 20.56,-14.18 41.3,-28.06 62,-42.03 m -550,105 c 5.853,1.69 10.961,5.61 17,6.67 29.999,5.26 65.645,-0.55 94,-10 8.641,-2.88 19.29,-4.82 27,-9.67 -5.233,-3.54 -12.121,-5.51 -16.482,-10.21 -2.868,-3.09 -4.867,-7.06 -6.762,-10.79 -2.098,-4.12 -4.62,-8.39 -5.427,-13 -3.249,-18.57 15.526,-29.02 24.671,-42 -10.15,-4.74 -18.783,-12.08 -29,-16.69 -13.557,-6.11 -28.538,-8.28 -43,-11.11 -4.223,-0.83 -22.155,-7.19 -23.642,-1.05 -1.693,6.99 5.62,16.79 8.33,22.85 5.518,12.34 12.487,37.33 5.909,50 -7.513,14.47 -26.894,24.1 -39.597,33.63 -4.481,3.36 -10.281,6.4 -13,11.37 M 583,1233 c 8.136,9.84 22.592,16.06 33,23.42 17.839,12.62 35.882,25.04 54,37.25 11.877,8.01 22.721,16.71 37,19.9 15.513,3.48 27.94,3.53 42,-4.58 4.404,-2.55 11.09,-5.96 10.663,-11.99 -0.364,-5.13 -5.866,-8.38 -9.663,-10.97 -11.108,-7.6 -22.398,-15.67 -34,-22.45 -37.457,-21.89 -91.041,-71.56 -133,-30.58 m 344,11.64 c -7.703,2.17 -15.649,6.15 -23,9.36 -18.884,8.26 -34.202,34.16 -10.96,48.99 4.782,3.06 10.869,2.83 15.959,5.2 4.147,1.93 6.349,6.47 10.326,8.21 4.021,1.76 10.36,0.6 14.675,0.6 11.218,0 26.085,2.6 36.911,-0.32 5.095,-1.37 8.044,-7.23 13.089,-9.29 6.064,-2.48 12.661,-3.93 18,-7.95 14.41,-10.86 8.5,-30.53 -4,-39.83 -18.246,-13.58 -48.553,-21.31 -71,-14.97" />
  <path
     id="path27"
     style="display:inline;fill:#fdfeff;stroke:none"
     d="m 1167,997 c -25.53,-41.365 -49.73,-89.079 -27.69,-138 8.19,-18.18 21.51,-30.129 32.69,-46 -9.65,1.792 -21.13,-0.29 -30,4.519 -36.3,19.68 -43.18,74.452 -36.39,110.481 4.21,22.309 15.06,60.267 38.39,70.058 6.16,2.582 16.45,-0.541 23,-1.058 m 73,-24 c -20.02,10.475 -41.23,-4.546 -48.57,-24 -11.19,-29.637 -12.79,-65.142 1.94,-94 8.04,-15.727 25.57,-29.725 43.63,-24 -2.01,-18.485 -28.93,-20.879 -43,-15.529 -19.81,7.526 -30.65,30.706 -36.66,49.529 -11.6,36.351 -6.1,83.638 16.82,115 4.35,5.95 10.66,13.706 17.84,16.272 14.77,5.278 43.79,-8.287 48,-23.272 m -404,33 c -18.504,9.45 -30.075,-11.329 -36.769,-26 -15.334,-33.606 -20.63,-66.957 -5.51,-102 5.321,-12.333 13.063,-20.526 24.256,-27.731 2.252,-1.451 5.395,-3.998 2.531,-6.655 -3.086,-2.862 -10.792,-0.38 -14.508,0.104 -4.915,0.641 -11.46,0.272 -15.911,2.6 -8.913,4.661 -16.406,17.459 -21.744,25.682 -21.632,33.323 -14.452,86.189 2.464,120 5.099,10.19 13.59,24.49 24.191,29.67 3.92,1.91 8.896,0.33 13,-0.25 10.513,-1.48 25.942,-2.09 28,-15.42 m -58,20 v -1 c -37.065,-28.244 -46.901,-93.287 -32.136,-135 5.712,-16.136 15.643,-28.115 25.136,-42 -8.596,0.024 -21.284,0.002 -29,4.05 -12.353,6.482 -18.813,21.399 -23,33.95 -10.511,31.51 -9.623,62.421 0.67,94 5.01,15.372 14.348,39.48 30.33,46.59 7.519,3.35 19.949,-0.52 28,-0.59 m -43,5 c -8.141,-11.91 -17.744,-22.18 -24.691,-35 -15.533,-28.669 -21.003,-63.567 -11.283,-95 5.352,-17.311 15.367,-30.921 22.974,-47 -6.106,1.15 -14.435,1.166 -19.911,4.175 -6.434,3.536 -12.147,12.021 -16.459,17.825 -21.591,29.061 -21.123,74.845 -9.963,108 5.347,15.883 19.006,43.01 36.333,48.43 6.308,1.98 16.477,-0.61 23,-1.43 m 518,-95 c -24.93,-0.225 -26.64,-35.837 -17.69,-52 4.71,-8.497 12.37,-16.371 22.69,-14 -7.9,-16.964 -29.1,-12.863 -39.1,0.015 -13.05,16.808 -14.25,37.654 -6.45,56.985 3.4,8.413 8.93,17.928 17.55,21.86 11.93,5.442 22.7,0.019 23,-12.86"
     inkscape:label="bar" />
  <path
     id="path33"
     style="display:inline;fill:#fdfeff;stroke:none"
     d="m 879,956.529 c -12.42,2.871 -14.86,16.506 -15.826,27.471 -2.253,25.58 17.784,49.16 17.826,75 0.04,24.82 3.207,50.24 0.286,75 -0.808,6.85 1.083,14.54 -1.844,21 -6.158,13.58 -24.061,16.49 -35.441,24.1 -5.021,3.37 -11.075,10.17 -9.643,16.86 1.139,5.32 8.154,6.59 12.642,7.43 12.942,2.39 26.985,3.22 40,1.17 12.599,-1.98 40.366,-10.36 43.606,-24.56 1.7,-7.45 -3.058,-13.04 -4.277,-20 -1.537,-8.77 -1.117,-20.16 -0.155,-29 1.814,-16.7 11.435,-29.21 9.655,-47 -1.418,-14.18 -10.403,-26.46 -9.79,-41 0.686,-16.25 4.121,-32.87 6.243,-49 0.745,-5.671 3.776,-14.517 1.64,-19.999 C 927.09,956.464 894.661,952.909 879,956.529 m 85,5.004 c -12.427,3.022 -12.381,19.23 -10.674,29.467 4.414,26.49 25.832,47.52 31.66,74 4.874,22.15 9.274,44.55 12.438,67 1.175,8.33 5.116,19.8 2.786,28 -4.316,15.21 -22.216,21.17 -32.105,32 -3.941,4.32 -8.532,12.5 -5.502,18.57 2.131,4.27 9.624,3.35 13.397,2.85 13.562,-1.78 27.59,-2.31 41,-4.88 11.24,-2.16 34.58,-10.54 38.35,-22.54 2.76,-8.83 -4.26,-15.52 -7.4,-23 -3.5,-8.35 -5.44,-20.94 -5.69,-30 -0.42,-14.88 6.11,-27.67 2.5,-43 -3.66,-15.54 -16.12,-28.14 -18.46,-44 -2.16,-14.69 -1.92,-31.13 -2.29,-46 -0.16,-6.894 1.22,-16.66 -2.04,-22.985 C 1015.59,964.607 996.373,961.001 984,961 c -6.395,0 -13.752,-0.986 -20,0.533"
     inkscape:label="legs" />
  <path
     style="display:inline;fill:#fdfeff;stroke:none"
     d="m 918,672 c -2.684,9.457 -4.41,18.107 -3.961,28 1.265,27.863 29.349,40.895 53.961,30.776 14.234,-5.852 24.494,-22.264 30.28,-35.776 3.37,-7.87 13.61,-31.05 1.495,-36.397 -11.306,-4.991 -19.857,13.234 -28.775,16.655 -15.794,6.058 -37.56,0.955 -53,-3.258"
     id="path21"
     inkscape:label="neck" />
  <path
     style="display:inline;fill:#fdfeff;stroke:none"
     d="m 864,904 -5,-4 v -1 c 15.2,-2.755 10.59,-18.118 13.318,-29 1.025,-4.089 4.735,-6.464 6.744,-10 2.373,-4.178 2.415,-9.501 4.028,-14 4.451,-12.406 16.227,-23.764 17.721,-37 1.133,-10.033 -5.076,-21.448 -7.66,-31 -4.022,-14.872 -5.274,-29.853 -5.347,-45.196 -0.059,-12.519 -0.007,-25.461 2.301,-37.804 0.728,-3.896 4.213,-7.033 4.238,-11 0.023,-3.898 -2.46,-8.187 -3.343,-12 -22.223,0.374 -37.527,15.034 -39.917,37 -1.559,14.329 -2.854,29.652 -0.861,44 2.43,17.498 8.973,36.193 7.695,54 -1.253,17.451 -8.538,34.777 -11.528,52 -2.276,13.108 -0.588,26.332 -5.778,39 -3.031,7.399 -11.804,12.027 -14.278,19 -1.328,3.745 -2.82,13.052 -0.611,16.611 1.922,3.097 7.249,6.166 8.278,1.389 8.171,5.75 27.642,8.5 36.787,2.976 5.117,-3.091 4.778,-10.981 11.228,-12.658 C 913.271,917.19 950.832,916 983,916 v 9 l 47.96,-0.318 9.21,-7.654 L 1053,916 c 0,33.719 12.16,69.926 47,82.034 6.6,2.296 15.03,1.085 22,1.966 -9.88,-14.024 -22.31,-25.015 -29.69,-41 -18.94,-41.057 -12.81,-89.443 11.38,-127 4.11,-6.382 9.63,-10.329 14.31,-16 -8.31,10e-4 -19.05,-0.585 -27,1.8 -30.25,9.075 -31.67,44.958 -41.14,69.141 -1.98,5.036 -11.39,6.569 -15.57,3.456 -2.35,-1.758 -3.94,-4.468 -3.04,-7.397 4.47,-14.537 11.27,-27.847 14.87,-43 7.74,-32.648 15.76,-65.123 22.1,-97.999 0.75,-3.842 3.82,-6.364 4.8,-10.09 2.23,-8.448 1.49,-19.241 0.89,-27.911 -1.97,-28.681 -21.88,-49.858 -51.82,-41.682 -5.43,1.484 -7.24,8.997 -8.75,13.682 -4.7,14.683 -4.7,29.731 -4.33,45 0.26,10.541 2.61,22.182 6.45,32 1.76,4.499 6.88,10.182 6.97,15 0.08,4.094 -4.58,8.667 -6.62,12 -4.98,8.13 -9.34,16.841 -12.09,26 -7.175,23.95 4.53,52.348 -8.708,74.91 -8.031,13.683 -26.371,13.179 -40.012,14.179 -19.69,1.443 -39.348,3.839 -59,5.741 -10.278,0.995 -22.127,0.252 -32,3.17"
     id="path22"
     inkscape:label="arms" />
  <path
     style="display:inline;fill:#fdfeff;stroke:none"
     d="m 950,537.529 c -13.11,3.01 -21.59,15.699 -26.188,27.471 -11.008,28.181 -9.274,65.716 21.188,80.215 6.735,3.206 14.633,4.688 22,3.116 36.69,-7.827 41.74,-67.608 21.385,-92.331 C 979.234,544.885 965.377,534 950,537.529"
     id="path16"
     inkscape:label="head" />
  <path
     id="path4"
     style="display:inline;fill:#fdfeff;stroke:none"
     d="m 913,310 c 2.404,6.353 6.689,11.918 9.73,18 10.733,21.467 17.078,46.286 45.27,46.985 5.332,0.133 10.366,0.072 14.985,-2.955 16.657,-10.915 18.465,-33.416 38.015,-42.71 23.55,-11.192 53.56,-9.32 79,-9.32 -4.99,-11.985 -11.87,-23.155 -17.23,-35 -1.77,-3.914 -2.9,-11.326 -6.47,-13.972 -6.15,-4.561 -25.7,-1.028 -33.3,-1.028 -13.1,0 -30.25,0.257 -42,6.754 -11.134,6.154 -18.034,18.737 -28,26.577 -15.963,12.557 -41.16,11.963 -60,6.669 m -149,84 c 12.43,-8.756 21.647,-20.604 35,-28.547 21.901,-13.029 44.39,-15.408 68,-22.453 -5.386,-15.92 -12.529,-31.826 -19.745,-47 -2.216,-4.661 -4.089,-13.056 -8.645,-15.972 -5.189,-3.321 -13.918,-1.381 -19.61,-1.064 -26.997,1.504 -48.453,19.112 -68,36.322 -5.23,4.604 -20.215,15.509 -20.897,22.714 -0.46,4.862 5.895,11.998 8.297,16 8.159,13.599 16.36,27.1 25.6,40 m 197,22 c 7.663,14.548 11.267,34.216 21.529,46.981 9.796,12.185 42.781,14.209 55.471,6.666 12.64,-7.516 15.84,-25.039 31,-28.747 29.8,-7.289 60.11,0.484 90,1.1 a 1686,1686 0 0 0 -21.25,-44 c -3.28,-6.557 -6.24,-15.351 -11.38,-20.682 -4.36,-4.515 -13.67,-2.994 -19.37,-3.742 -17.96,-2.358 -51.54,-6.706 -66.99,4.982 -13.38,10.124 -19.3,27.588 -35.01,35.443 -13.45,6.725 -29.856,3.223 -44,1.999 m -168,39 v 1 l 40,71 h 2 c 19.874,-28.55 54.746,-52.213 90,-55 -3.317,-18.608 -18.33,-38.154 -26.753,-55 -2.23,-4.46 -5.243,-15.141 -10.46,-16.682 -7.37,-2.177 -18.712,1.4 -25.787,3.567 -27.518,8.43 -49.28,31.385 -69,51.115" />
</svg>
