<?xml version="1.0" encoding="UTF-8" standalone="no"?>
<svg
   width="944.12726"
   height="100.95337"
   version="1.1"
   id="svg13"
   sodipodi:docname="svnl.svg"
   inkscape:version="1.4.3 (0d15f75, 2025-12-25)"
   inkscape:export-filename="svnl-text.svg"
   inkscape:export-xdpi="96"
   inkscape:export-ydpi="96"
   xmlns:inkscape="http://www.inkscape.org/namespaces/inkscape"
   xmlns:sodipodi="http://sodipodi.sourceforge.net/DTD/sodipodi-0.dtd"
   xmlns="http://www.w3.org/2000/svg"
   xmlns:svg="http://www.w3.org/2000/svg">
  <defs
     id="defs13" />
  <sodipodi:namedview
     id="namedview13"
     pagecolor="#ffffff"
     bordercolor="#000000"
     borderopacity="0.25"
     inkscape:showpageshadow="2"
     inkscape:pageopacity="0.0"
     inkscape:pagecheckerboard="0"
     inkscape:deskcolor="#d1d1d1"
     inkscape:zoom="0.46145779"
     inkscape:cx="952.41648"
     inkscape:cy="1000.0915"
     inkscape:window-width="2481"
     inkscape:window-height="1264"
     inkscape:window-x="131"
     inkscape:window-y="41"
     inkscape:window-maximized="0"
     inkscape:current-layer="svg13"
     inkscape:export-bgcolor="#ffffff00">
    <inkscape:page
       x="0"
       y="0"
       width="944.12726"
       height="100.95337"
       id="page2"
       margin="0"
       bleed="0" />
  </sodipodi:namedview>
  <path
     d="m 1204.492,-895.71899 c -86.37,-50.938 -162.16,-119.59501 -225.58,-197.00001 -20.35,-24.842 -38.52,-51.478 -55.02,-79 -5.11,-8.518 -9.73,-17.317 -14.54,-26 -1.72,-3.112 -3.12,-7.977 -6.25,-9.972 -4,-2.554 -12.03,-1.028 -16.61,-1.028 H 36.492004 c -5.29,0 -12.939,-1.389 -17.907,0.603 -7.428,2.98 -13.4189996,17.851 -17.5169996,24.397 -13.3770004,21.363 -27.4430004,42.424 -42.0000004,63 -45.001,63.606 -95.763004,119.153 -156.576004,167.99901 -19.757,15.87 -40.044,31.396 -61,45.657 -4.656,3.168 -20.066,10.231 -20.292,16.387 -0.282,7.716 8.771,19.818 11.868,26.957 9.465,21.821 18.33,44.278 25.399,67 23.785,76.46 45.025,152.489 45.025,233 0,66.799 -16.499,131.863 -33.849,196 -11.977,44.28 -23.325,88.72 -35.302,133 -17.327,64.05 -35.534,133.66 -18.954,199.999996 5.363,21.46 14.998,41.9699999 26.117,61 116.003,198.580004 367.287,225.070004 566.988,283.420004 36.654,10.71 74.107,23.25 107,42.98 11.303,6.78 21.994,13.98 32,22.6 3.46,2.98 9.269,10.55 14,10.88 6.043,0.43 16.293,-10.75 21,-14.25 17.407,-12.93 35.82,-24.73 55,-34.85 58.32,-30.77 122.93,-48.2 187,-62.36 39.79,-8.78 80.81,-13.67 120,-24.85 78.48,-22.37 155.12,-62.23 222,-108.55 44.64,-30.91 87.31,-68.390004 114.57,-116.020004 37.19,-64.97 33.48,-138.279996 17.85,-208.999996 -19.64,-88.92 -53.54,-174.05 -69.17,-264 -19.45,-111.939 -9.78,-225.012 25.42,-333 8.08,-24.79 17.76,-49.307 28.64,-73 6.44,-14.024 15.43,-27.55 20.69,-42"
     style="display:inline;fill:#3478be;fill-opacity:1;stroke:none"
     id="path3"
     inkscape:label="shield" />
  <path
     style="font-size:138.667px;font-family:'SF Pro Rounded';-inkscape-font-specification:'SF Pro Rounded';white-space:pre;display:inline;fill:#ffffff"
     d="m 35.750085,100.95337 c 21.86984,0 36.08863,-11.3073 36.08863,-29.3855 0,-13.8125 -8.05731,-21.9375 -28.43757,-26.4063 l -10.83336,-2.3698 c -13.33858,-2.9115 -18.55213,-8.1927 -18.55213,-15.9115 0,-9.9531 9.41148,-15.9115 21.59901,-15.9115 10.56253,0 18.61984,4.3334 22.00526,14.2188 1.08334,3.1146 2.97918,4.7396 6.09377,4.7396 3.25,0 5.55209,-2.1667 5.55209,-5.4844 0,-1.2865 -0.13541,-2.3021 -0.33854,-3.0469 C 65.406405,8.1927699 52.270955,-3.0140625e-5 35.953205,-3.0140625e-5 15.708365,-3.0140625e-5 1.4895853,11.30737 1.4895853,27.42197 c 0,13.8802 8.46356,22.75 28.0313097,27.0157 l 10.83336,2.3698 c 13.5417,2.9791 18.95838,8.3958 18.95838,16.5886 0,9.6146 -9.6146,16.5885 -22.88547,16.5885 -12.32295,0 -21.93755,-4.7396 -24.91673,-14.8281 -0.94792,-3.25 -2.8437497,-4.8073 -5.8906397,-4.8073 -3.45313,0 -5.6198000054688,2.4375 -5.6198000054688,6.2969 0,1.4218 0.2708299954688,2.9114 0.6770799954688,4.2656 3.65626001,11.7813 16.72399971,20.0417 35.07300971,20.0417 z m 84.567915,-0.6771 c 3.85939,0 5.89064,-1.4896 7.44794,-5.5521 L 160.60456,9.3437699 c 0.47396,-1.2864 0.74479,-2.4375 0.74479,-3.3854 0,-3.0469 -2.57292,-5.28130004 -6.16147,-5.28130004 -2.97918,0 -4.60418,1.21880004 -5.75522,4.33340004 L 120.52113,84.50017 h -0.40625 L 91.203345,5.0104699 c -1.08334,-2.9792 -2.91147,-4.33340004 -5.82293,-4.33340004 -3.65626,0 -6.09377,2.09900004 -6.09377,5.28130004 0,0.9479 0.20313,2.0312 0.74479,3.3854 L 112.80236,94.65647 c 1.55729,4.0625 3.65626,5.6198 7.51564,5.6198 z m 59.24495,0 c 3.72397,0 6.02606,-2.4375 6.02606,-6.2969 v -71.0939 h 0.60937 l 51.39075,73.396 c 2.16668,3.1146 3.72397,3.9948 7.04169,3.9948 4.33334,0 6.90627,-2.5052 6.90627,-6.6354 V 6.9739699 c 0,-3.8594 -2.30209,-6.29690004 -6.02606,-6.29690004 -3.72397,0 -6.02606,2.43750004 -6.02606,6.29690004 V 78.33877 H 238.8756 L 187.55255,4.7395699 c -2.16667,-3.1146 -3.79167,-4.06250004 -7.04168,-4.06250004 -4.19793,0 -6.97398,2.84380004 -6.97398,7.10940004 V 93.97937 c 0,3.8594 2.30209,6.2969 6.02606,6.2969 z m 97.02627,-0.9479 h 48.41157 c 3.45314,0 5.82293,-2.2344 5.82293,-5.4844 0,-3.25 -2.36979,-5.4844 -5.82293,-5.4844 H 282.68298 V 6.9739699 c 0,-3.8594 -2.3698,-6.29690004 -6.09376,-6.29690004 -3.72397,0 -6.09377,2.43750004 -6.09377,6.29690004 V 93.03147 c 0,3.8594 2.3698,6.2969 6.09377,6.2969 z m 127.08885,1.625 c 21.86984,0 36.08863,-11.3073 36.08863,-29.3855 0,-13.8125 -8.05732,-21.9375 -28.43757,-26.4063 l -10.83336,-2.3698 c -13.33858,-2.9115 -18.55213,-8.1927 -18.55213,-15.9115 0,-9.9531 9.41148,-15.9115 21.59901,-15.9115 10.56252,0 18.61984,4.3334 22.00526,14.2188 1.08334,3.1146 2.97917,4.7396 6.09377,4.7396 3.25,0 5.55209,-2.1667 5.55209,-5.4844 0,-1.2865 -0.13541,-2.3021 -0.33854,-3.0469 C 433.33439,8.1927699 420.19894,-3.0140625e-5 403.88119,-3.0140625e-5 383.63635,-3.0140625e-5 369.41756,11.30737 369.41756,27.42197 c 0,13.8802 8.46357,22.75 28.03132,27.0157 l 10.83336,2.3698 c 13.5417,2.9791 18.95838,8.3958 18.95838,16.5886 0,9.6146 -9.6146,16.5885 -22.88547,16.5885 -12.32295,0 -21.93755,-4.7396 -24.91673,-14.8281 -0.94792,-3.25 -2.84375,-4.8073 -5.89064,-4.8073 -3.45313,0 -5.6198,2.4375 -5.6198,6.2969 0,1.4218 0.27083,2.9114 0.67708,4.2656 3.65626,11.7813 16.724,20.0417 35.07301,20.0417 z m 90.52628,0 c 17.87502,0 30.60422,-7.3125 37.03652,-20.2448 1.0834,-2.1667 1.625,-3.9948 1.625,-6.0938 0,-3.1823 -2.3021,-5.4844 -5.5521,-5.4844 -2.7083,0 -4.401,1.2865 -5.6875,4.2657 -4.6042,10.9687 -14.625,16.3177 -27.35421,16.3177 -19.29692,0 -31.55216,-15.3021 -31.55216,-39.2709 0,-23.7657 12.39065,-39.2032 31.48445,-39.2032 12.05212,0 22.54692,6.2291 27.15112,17.7396 1.3542,3.4531 3.4531,5.0781 6.4323,5.0781 3.3177,0 5.4844,-2.1667 5.4844,-5.5521 0,-1.4219 -0.3386,-3.1146 -1.0156,-4.8073 C 526.50127,9.1406699 512.01167,-3.0140625e-5 494.20435,-3.0140625e-5 467.45949,-3.0140625e-5 450.19383,19.77087 450.19383,50.44287 c 0,30.9428 17.06254,50.5105 44.01052,50.5105 z m 61.00532,-0.4062 c 3.6563,0 6.0938,-2.5053 6.0938,-6.2969 v -33.5834 h 23.3594 l 19.5678,35.9532 c 1.5573,2.9114 3.1823,3.9271 5.9583,3.9271 3.5209,0 6.2292,-2.4375 6.2292,-5.6198 0,-1.3542 -0.3385,-2.573 -1.2864,-4.2657 l -17.8751,-31.8907 c 12.2552,-3.8594 19.6355,-14.4219 19.6355,-28.0313 0,-17.6042 -12.323,-29.1147001 -31.1459,-29.1147001 h -30.5366 c -3.7239,0 -6.0937,2.4375 -6.0937,6.2969 V 94.25027 c 0,3.7916 2.4375,6.2969 6.0937,6.2969 z m 6.0938,-50.646 v -37.4428 h 22.8178 c 12.5937,0 20.1771,6.974 20.1771,18.6875 0,11.9845 -7.1094,18.7553 -19.6355,18.7553 z m 71.2293,50.3751 c 3.0469,0 4.8073,-1.4219 5.9584,-4.6719 l 8.5989,-24.2396 h 38.6616 l 8.6667,24.2396 c 1.151,3.25 2.9114,4.6719 5.9583,4.6719 3.5209,0 6.0938,-2.2344 6.0938,-5.3489 0,-0.8803 -0.2031,-1.8959 -0.7448,-3.3855 L 674.24127,6.5000699 c -1.4896,-3.9948 -3.9271,-5.82300004 -7.6511,-5.82300004 -3.9948,0 -6.5,1.89590004 -7.9896,5.89070004 L 627.18377,91.54187 c -0.5416,1.4896 -0.7448,2.5052 -0.7448,3.3855 0,3.1145 2.573,5.3489 6.0938,5.3489 z m 18.0782,-39.2709 15.6406,-44.5522 h 0.4063 l 15.6407,44.5522 z m 75.1565,39.2709 c 3.7239,0 6.0937,-2.4375 6.0937,-6.2969 v -29.5209 h 22.547 c 18.349,0 31.4167,-12.9323 31.4167,-31.4844 0,-18.4844 -12.9323,-31.3491001 -31.2813,-31.3491001 h -28.7761 c -3.724,0 -6.0938,2.4375 -6.0938,6.2969 V 93.97937 c 0,3.8594 2.3698,6.2969 6.0938,6.2969 z m 6.0937,-46.6511 v -41.1668 h 19.5001 c 14.0156,0 21.9375,7.5834 21.9375,20.5157 0,13 -7.9896,20.6511 -21.9375,20.6511 z m 74.0054,45.7032 h 49.6303 c 3.4532,0 5.823,-2.2344 5.823,-5.4844 0,-3.25 -2.3698,-5.4844 -5.823,-5.4844 h -43.5365 v -33.5834 h 41.099 c 3.3854,0 5.7552,-2.2344 5.7552,-5.4167 0,-3.25 -2.3698,-5.4166 -5.7552,-5.4166 h -41.099 v -31.3491 h 43.5365 c 3.4532,0 5.823,-2.2344 5.823,-5.4844001 0,-3.25 -2.3698,-5.4844 -5.823,-5.4844 h -49.6303 c -3.724,0 -6.0938,2.4375 -6.0938,6.2969 V 93.03147 c 0,3.8594 2.3698,6.2969 6.0938,6.2969 z m 76.5783,1.2188 c 3.6563,0 6.0938,-2.5053 6.0938,-6.2969 v -33.5834 h 23.3594 l 19.5678,35.9532 c 1.5572,2.9114 3.1823,3.9271 5.9583,3.9271 3.5208,0 6.2292,-2.4375 6.2292,-5.6198 0,-1.3542 -0.3386,-2.573 -1.2865,-4.2657 l -17.875,-31.8907 c 12.2552,-3.8594 19.6354,-14.4219 19.6354,-28.0313 0,-17.6042 -12.3229,-29.1147001 -31.1459,-29.1147001 h -30.5365 c -3.724,0 -6.0938,2.4375 -6.0938,6.2969 V 94.25027 c 0,3.7916 2.4375,6.2969 6.0938,6.2969 z m 6.0938,-50.646 v -37.4428 h 22.8177 c 12.5938,0 20.1772,6.974 20.1772,18.6875 0,11.9845 -7.1094,18.7553 -19.6355,18.7553 z"
     id="text53"
     aria-label="SVNL SCRAPER "
     inkscape:label="svnl-text" />
</svg>
